<svg width="4232" height="2012" xmlns="http://www.w3.org/2000/svg" xmlns:xlink="http://www.w3.org/1999/xlink" overflow="hidden"><defs><clipPath id="clip0"><rect x="85" y="400" width="4232" height="2012"/></clipPath></defs><g clip-path="url(#clip0)" transform="translate(-85 -400)"><rect x="530" y="407" width="3780" height="299" stroke="#000000" stroke-width="13.75" stroke-miterlimit="8" fill="none"/><text font-family="Calibri,Calibri_MSFontService,sans-serif" font-weight="400" font-size="92" transform="matrix(1 0 0 1 2055.85 588)">GitHub, GitLab, etc.</text><rect x="530" y="1215" width="3780" height="1190" stroke="#000000" stroke-width="13.75" stroke-miterlimit="8" fill="none"/><rect x="721.5" y="1275.5" width="802" height="687" stroke="#507E32" stroke-width="4.58333" stroke-miterlimit="8" fill="#70AD47"/><text fill="#FFFFFF" font-family="Calibri,Calibri_MSFontService,sans-serif" font-weight="400" font-size="92" transform="matrix(1 0 0 1 783.291 1650)">Working Directory</text><rect x="2074.5" y="1275.5" width="733" height="687" stroke="#507E32" stroke-width="4.58333" stroke-miterlimit="8" fill="#70AD47"/><text fill="#FFFFFF" font-family="Calibri,Calibri_MSFontService,sans-serif" font-weight="400" font-size="92" transform="matrix(1 0 0 1 2207.27 1650)">Staging Area</text><rect x="3364.5" y="1278.5" width="733" height="687" stroke="#507E32" stroke-width="4.58333" stroke-miterlimit="8" fill="#70AD47"/><text fill="#FFFFFF" font-family="Calibri,Calibri_MSFontService,sans-serif" font-weight="400" font-size="92" transform="matrix(1 0 0 1 3530.78 1653)">Repository</text><path d="M1635.5 1350.29 1898.64 1350.29 1898.64 1316.5 1972.5 1371.5 1898.64 1426.5 1898.64 1392.71 1635.5 1392.71Z" stroke="#2F528F" stroke-width="4.58333" stroke-miterlimit="8" fill="#4472C4" fill-rule="evenodd"/><path d="M1705.47 1444.63 1841.25 1444.63 1841.25 1540.63 1705.47 1540.63Z" fill="#C0C0C0" fill-rule="evenodd"/><text font-family="Consolas,Consolas_MSFontService,sans-serif" font-weight="400" font-size="83" transform="matrix(1 0 0 1 1705.47 1520)">add</text><path d="M3761.5 2001.5 3761.5 2215.5 1089.34 2215.5 1089.34 2093.38 1057.5 2093.38 1111 2001.5 1164.5 2093.38 1132.66 2093.38 1132.66 2172.17 3718.18 2172.17 3718.18 2001.5Z" stroke="#AE5A21" stroke-width="4.58333" stroke-miterlimit="8" fill="#ED7D31" fill-rule="evenodd"/><path d="M2282.02 2261.22 2598.84 2261.22 2598.84 2357.22 2282.02 2357.22Z" fill="#C0C0C0" fill-rule="evenodd"/><text font-family="Consolas,Consolas_MSFontService,sans-serif" font-weight="400" font-size="83" transform="matrix(1 0 0 1 2282.02 2336)">restore<tspan font-family="Calibri,Calibri_MSFontService,sans-serif" font-size="92" x="-2090.29" y="-550">Local</tspan><tspan font-family="Calibri,Calibri_MSFontService,sans-serif" font-size="92" x="-2141.43" y="-1749">Remote</tspan></text><path d="M2956.64 1456.24 3182.94 1456.24 3182.94 1552.24 2956.64 1552.24Z" fill="#C0C0C0" fill-rule="evenodd"/><path d="M3182.94 1456.24 3228.21 1456.24 3228.21 1552.24 3182.94 1552.24Z" fill="#C0C0C0" fill-rule="evenodd"/><text font-family="Consolas,Consolas_MSFontService,sans-serif" font-weight="400" font-size="83" transform="matrix(1 0 0 1 2956.64 1531)">commi<tspan font-size="83" x="226.302" y="0">t</tspan></text><path d="M2928.5 1369.29 3191.64 1369.29 3191.64 1335.5 3265.5 1390.5 3191.64 1445.5 3191.64 1411.71 2928.5 1411.71Z" stroke="#2F528F" stroke-width="4.58333" stroke-miterlimit="8" fill="#4472C4" fill-rule="evenodd"/><path d="M2764.49 906.009 2945.53 906.009 2945.53 1002.01 2764.49 1002.01Z" fill="#C0C0C0" fill-rule="evenodd"/><text font-family="Consolas,Consolas_MSFontService,sans-serif" font-weight="400" font-size="83" transform="matrix(1 0 0 1 2764.49 981)">pull</text><path d="M2697.71 787.5 2697.71 1050.64 2731.5 1050.64 2676.5 1124.5 2621.5 1050.64 2655.29 1050.64 2655.29 787.5Z" stroke="#2F528F" stroke-width="4.58333" stroke-miterlimit="8" fill="#4472C4" fill-rule="evenodd"/><path d="M2018.76 908.457 2199.8 908.457 2199.8 1004.46 2018.76 1004.46Z" fill="#C0C0C0" fill-rule="evenodd"/><text font-family="Consolas,Consolas_MSFontService,sans-serif" font-weight="400" font-size="83" transform="matrix(1 0 0 1 2018.76 983)">push</text><path d="M1910.29 1122.5 1910.29 859.357 1876.5 859.357 1931.5 785.5 1986.5 859.357 1952.71 859.357 1952.71 1122.5Z" stroke="#2F528F" stroke-width="4.58333" stroke-miterlimit="8" fill="#4472C4" fill-rule="evenodd"/><path d="M1645.19 1819.93 1962.02 1819.93 1962.02 1915.93 1645.19 1915.93Z" fill="#C0C0C0" fill-rule="evenodd"/><text font-family="Consolas,Consolas_MSFontService,sans-serif" font-weight="400" font-size="83" transform="matrix(1 0 0 1 1645.19 1895)">restore</text><path d="M1955.5 1764.71 1692.36 1764.71 1692.36 1798.5 1618.5 1743.5 1692.36 1688.5 1692.36 1722.29 1955.5 1722.29Z" stroke="#AE5A21" stroke-width="4.58333" stroke-miterlimit="8" fill="#ED7D31" fill-rule="evenodd"/><path d="M2944.96 1823.84 3261.79 1823.84 3261.79 1919.84 2944.96 1919.84Z" fill="#C0C0C0" fill-rule="evenodd"/><text font-family="Consolas,Consolas_MSFontService,sans-serif" font-weight="400" font-size="83" transform="matrix(1 0 0 1 2944.96 1899)">restore</text><path d="M3265.5 1777.71 3002.36 1777.71 3002.36 1811.5 2928.5 1756.5 3002.36 1701.5 3002.36 1735.29 3265.5 1735.29Z" stroke="#AE5A21" stroke-width="4.58333" stroke-miterlimit="8" fill="#ED7D31" fill-rule="evenodd"/><path d="M702.232 913.701 928.534 913.701 928.534 1009.7 702.232 1009.7Z" fill="#C0C0C0" fill-rule="evenodd"/><text font-family="Consolas,Consolas_MSFontService,sans-serif" font-weight="400" font-size="83" transform="matrix(1 0 0 1 702.232 989)">clone</text><path d="M648.262 748.5 648.262 1103.5 669.5 1103.5 634.5 1176.5 599.5 1103.5 620.738 1103.5 620.738 748.5Z" stroke="#000000" stroke-width="4.58333" stroke-miterlimit="8" fill-rule="evenodd"/></g></svg>